# xmcd CD database file
#
# Track frame offsets:
#	150
#	22462
#	45505
#
# Disc length: 903 seconds
#
# Revision: 0
# Processed by: cddbd v1.5.1PL0 Copyright (c) Steve Scherf et al.
# Submitted via: CDex 1.51
#
DISCID=22038503
DTITLE=西村智彦 - バイバイ
DYEAR=1998
DGENRE=JPop
TTITLE0=バイバイ（Vocal: 具島直子）
TTITLE1=A Transition[Remix]
TTITLE2=バイバイ[No Lead Vocal Version]
EXTD=YEAR: 1998
EXTT0=
EXTT1=
EXTT2=
PLAYORDER=
